/* XPM */
static char *_c7a725d1c17402f8c6fe4649ea9d9fbffQ9i8vtFxVzPy3T[] = {
/* columns rows colors chars-per-pixel */
"64 64 223 2 ",
"   c #5C2F15",
".  c #5B351E",
"X  c #602D17",
"o  c #6A371B",
"O  c #71371B",
"+  c #733D1F",
"@  c #783B1A",
"#  c #573825",
"$  c #5B3923",
"%  c #673925",
"&  c #643B24",
"*  c #6C3C21",
"=  c #623E28",
"-  c #733C22",
";  c #7B3C23",
":  c #793C28",
">  c #6D4125",
",  c #65422B",
"<  c #6A432C",
"1  c #6C4A2E",
"2  c #744224",
"3  c #7C4425",
"4  c #7A4826",
"5  c #74452A",
"6  c #7B452A",
"7  c #77482A",
"8  c #7D4A2B",
"9  c #6E4731",
"0  c #6D4B32",
"q  c #784731",
"w  c #744A33",
"e  c #7C4D33",
"r  c #7F5537",
"t  c #7D5339",
"y  c #7C5A3F",
"u  c #803F1D",
"i  c #843D22",
"p  c #80421F",
"a  c #834324",
"s  c #8C4424",
"d  c #834926",
"f  c #8B4A26",
"g  c #83462A",
"h  c #8B462B",
"j  c #844C2D",
"k  c #8C4B2C",
"l  c #934525",
"z  c #934C25",
"x  c #93452B",
"c  c #934B2C",
"v  c #9A4B28",
"b  c #9A4B2D",
"n  c #83512F",
"m  c #8C522D",
"M  c #9A5226",
"N  c #94522D",
"B  c #9A532C",
"V  c #99562C",
"C  c #844D31",
"Z  c #8C4D32",
"A  c #854F3A",
"S  c #944E32",
"D  c #9B4E32",
"F  c #855333",
"G  c #8C5334",
"H  c #8C5836",
"J  c #82543A",
"K  c #8C5539",
"L  c #855A3C",
"P  c #8D5A3A",
"I  c #945334",
"U  c #9B5334",
"Y  c #955A35",
"T  c #9C5A35",
"R  c #94553A",
"E  c #9C563A",
"W  c #945C3B",
"Q  c #9C5B3C",
"!  c #A44F2C",
"~  c #A3552E",
"^  c #A9562F",
"/  c #A5592F",
"(  c #A34E32",
")  c #A35434",
"_  c #AB5435",
"`  c #A45A35",
"'  c #AB5C34",
"]  c #A35639",
"[  c #AA5639",
"{  c #A45C3C",
"}  c #AB5C3C",
"|  c #B05736",
" . c #B25B36",
".. c #B25C3B",
"X. c #8E603E",
"o. c #9C6137",
"O. c #94613D",
"+. c #9B623D",
"@. c #A26236",
"#. c #AD6235",
"$. c #AD6836",
"%. c #A4623C",
"&. c #AC633D",
"*. c #A5693F",
"=. c #AC6A3D",
"-. c #B36536",
";. c #B3633D",
":. c #B9633E",
">. c #B46A3D",
",. c #B96C3D",
"<. c #BC723E",
"1. c #875741",
"2. c #8B5C43",
"3. c #945C42",
"4. c #9C5C41",
"5. c #945F49",
"6. c #A45E41",
"7. c #AC5F41",
"8. c #B35E41",
"9. c #8F6144",
"0. c #8E664A",
"q. c #946343",
"w. c #9B6343",
"e. c #926844",
"r. c #9C6945",
"t. c #94654A",
"y. c #9C6649",
"u. c #966A4A",
"i. c #9B6C4B",
"p. c #9A6C50",
"a. c #A46344",
"s. c #AC6343",
"d. c #A46B45",
"f. c #AB6B44",
"g. c #A4654A",
"h. c #AB6649",
"j. c #A46C4B",
"k. c #AC6B4C",
"l. c #B36444",
"z. c #B96543",
"x. c #B36B43",
"c. c #BB6B43",
"v. c #B16649",
"b. c #B36B4B",
"n. c #BB6C4B",
"m. c #AD7146",
"M. c #A3724E",
"N. c #AB734D",
"B. c #AE7C4F",
"V. c #B57244",
"C. c #BC7344",
"Z. c #BF7842",
"A. c #B3744B",
"S. c #BA734C",
"D. c #B4794D",
"F. c #BA7B4C",
"G. c #A46C50",
"H. c #AD6D52",
"J. c #B36E52",
"K. c #BA6E51",
"L. c #A47452",
"P. c #AC7552",
"I. c #A57B52",
"U. c #AD7C53",
"Y. c #AC7658",
"T. c #AC7A5A",
"R. c #B37454",
"E. c #BA7353",
"W. c #B37C54",
"Q. c #B97C53",
"!. c #B6765A",
"~. c #B97559",
"^. c #B47C5A",
"/. c #BA7C5B",
"(. c #C16B4C",
"). c #C27645",
"_. c #C27A44",
"`. c #C1774C",
"'. c #C27856",
"]. c #BF804A",
"[. c #AC825C",
"{. c #B58253",
"}. c #BB8255",
"|. c #B68855",
" X c #BC8956",
".X c #B7855D",
"XX c #BB8259",
"oX c #BC8B5B",
"OX c #BD8462",
"+X c #B18A62",
"@X c #BD8B62",
"#X c #C3814E",
"$X c #C38255",
"%X c #C88956",
"&X c #C88C55",
"*X c #C1855A",
"=X c #C3895B",
"-X c #CD8E5F",
";X c #C1915E",
":X c #CA955E",
">X c #C38563",
",X c #C38E62",
"<X c #CB8960",
"1X c #C98C6B",
"2X c #D08C61",
"3X c #C59561",
"4X c #CE9464",
"5X c #CF9566",
"6X c #C39A66",
"7X c #CB9B65",
"8X c #C79469",
"9X c #CB9C69",
"0X c #D49064",
"qX c #D29C67",
"wX c #D39D67",
"eX c #D5976A",
"rX c #DF9768",
"tX c #D49C69",
"yX c #DF9D6C",
"uX c #D4A068",
"iX c #DFA46D",
"pX c #EEAC75",
"aX c #F3A673",
/* pixels */
"iXiXwXwXwXwXwX!./.>XR.P.R.h.y./.a.{ R.b.Q b.J.E J.J.k.g.j ` ;.l.s.d.+.W T h.R.g.~.J.h.w.F L @X.XW.,XOXoXQ.B.W.I.q.> t 0 0 = yXyX",
"wXwXwXwXwXwXwX1X/.OXg.g.P.h.a.b.h.v.h.h.h.R./.3 ~.h.E.Q 6 s.%.s.x.x.{ R b.h.E.s.7.6.h.4.L ,XJ.A.g.A.a.h.N.W.B.B.*.m M.^.j.g.yXyX",
"qX5XwXeX5X5X5XR.P.k.S I j.Q H.k.R.x.f.a.R.Q.OXJ H.7.Q.a.G V.f.s.S.&.3 R.E.v.l.h.7.J.s.R p./.f.a.{ a.h.a.a.k.j.a.Q h O.G.3.p.5X5X",
"-X-X-XrXrX0X0XK.k.I Z Y P.R E { h.{ h.E a.!.a.A W { { { h x.x.b.Q.U 3 J.K.E.v.'.'.K.l.S L A.a.k.a.d.a.a.{ Q Q a.G +.n j.3.y.eX<X",
"=XW./.t.y.q.y.s.6.D 6.7.H.Q a.v.7.7.{ { T XXg.G 4.Z E.a.a E ` } &.x.%.h.n.K.E.K.n.s.7.K y.k.a.6.{ I f.a.Q h.%.{ Q Q n n ] w.7X%X",
"W.i.2.2.2.q.y.] ] ] ] 6.Q +.R S h E I I d j d 8 C F Z d j H G k a N G F g : 3 j j j C C +.E Q 6.h I Y m I s.{ {.{.{.7XwX5X5X3X=X",
"P.u.y t J 1.3.J.6.4.g.4.y.g.^.Y.4.g.j.j.g.W R I E k.{ %.f.f.a.a.j t T.^.j.w.4.y.y.O.+.e.i.H 5 g K W M.w.G P 9X7X7X7X7X7X7X7X7X;X",
"*XP.p.Y.k.J.H.J.H.!.J.g.!.v.h.h.b.~.~.K.E U x U { { { s.S.A.f.` 7 3X>Xb.h.R.j.a.A.w././.Y.j.3.J.k.{.D.W.}.Q.|. X X X X X X%XrX-X",
">X*Xt.Y.H.H.H.H.6.3.H.H.g.H.J.H.J.~.!.8.S D D { s.{ U s.`.F.s.%.4 &X` ` ] ] } l.` { } 7.7.] 4.J.g.j.h.k.v.R.|.}. X-X*X*X%X*X<X=X",
"0X>X2.G.g.g.6.Q 6.6.6.H.H.g.v.h.H.7.6.6.h v.) f.k.{ x.h.f.%.s.%.4 &Xl.} } z.} } ] 8.7.) 7.v.g.6.a.4.R.h.h.E. X-X-X-X X X X X*X{.",
"0X}.1.7.H.H.h.k.6.6.h.6.4.7.4.7.J.7.v.h.A ] E } b b ` ) ` v.l.{ d ].S.z.} z.x.l.n.:.n.z.K.7.E 6.U Q a.] a.{ M.M.U.U.M.M.L.{.{.B.",
"8X Xy.H.6.6.a.Q h.g.g.g.h.h.4.v.7.] 6.T K U b U I T I T T %.T U W %.N.G Y Y R Y Y R G K S E C g g - 5 4 I F J u.i.i.i.i.u.W.*X%X",
"qX;X3X3X3X3X7X7XwXwXU.* g.H.7.h.v.K.4.m.D.{ { W n... . ._ ).z.c.;. .x.h.a.f.+.+.d.Y.H.g.R.h.6.i.K H P M.~.H.J 9 0 0 0 0 $ 1 =X=X",
"qX;X7X:X3X3X7X7XwXwXwX8 !.K.7.K.'.7.U S.&...} x z... ...-.:.,.n.x.c.c.s.x.'.W.m.P ~.,XE.!.6.S 4.a.6.F P.!.4.4.R.E.!./.J.K &X*X0X",
";X|.oXoXoXoX=X;X5X5XeX5 v.8.6.7.v.4.[ _ } l.n.k :.(.(.:.z...S.b.s.x.b.h.E.h.n.Q O.,X1X*XR.E 4.4.4.R F a.4.E 4.J.b.b.h.a.3 =.=XrX",
"0X{.M.I.M.M.M.M.P.U.G.g 6.8.7.] ] h.] } :.(...x (.z.z.:...&.v.s.{ 6.{ b.h.x.S.N 0.Y.OXH.g.S S v.6.W j g.h.4.k.P.4.6.h.R g %.}.-X",
"W.N.u.i.i.i.u.u.u.u.u.m a.{ { v.} n.x ] ( 8._ x l.l.z.z.l.%.d.U E ` k Q T O.F 4 P ^.Y.H 3.4.h.g.g.H.w 4.a.h.g.a.4.a.a.4.C m rX}.",
"U.M.i.t J r L r J w 5 Y >Xs.} ) ( ( x v ( [ ( i ....n.} ` N Y m U I G I m n H +.y.T.a.F g.E 4.Q 3.3 < 4.h.R.g.g.3.R Q j j d =X X",
"q.P $ 6 6 2 6 j g h @.&.N.I I T S c i s } %.D g m 4 j j j j H Y Y +.B.oX{.{.oXY.P y.> o 5 d 8 2 + 3 F L G F F C R K P 2.O.H 3X|.",
"M.M.W Y ^.i.j.R.Y.Q m.d.k j.W.d.F 2 E w.Y d.j.f.*.D.F. Xf.=.=.@.].>.}.A.m.A.s.u.+XI.I.I.+X.X[.L.P B.d.f.W.f. XoX9X9X6X6X@X6X@X@X",
"XXR.y.Y.OXj.Q a.h.h.b.a.f.R.+.d.r.O.{ x.x.V.=.A.F.V._.>.=.F.V.Y Z.<.,.,.#.>.) q.OXOXM.[.P.j.T.j.G ` s.s.} } ,X9XuX9X9X9X6X6X7X6X",
"rX<Xy.H.W 6 h R S %.%.a.+.*.a.A.f.r.I #XV.D.D.F.D.f.N.m.D.}.D.3 F.-.#.>./ M ~ 6 Y.W.j.L.L.M.L.j.Y I x.} { } &X2X6X3XoX,X7X7X6X6X",
"rX<Xp.4.C 5 6.f.f.&.&.s.%.f.a.s.a.j C s.D.m.W.A.D.Q.A.Q.f.D.V d =.#.=.' / @.) & P.g.g.j.y.y.L.j.G ` b.s.{ { <X:X=XoX}.3X5X5X3X7X",
"iXwX6.4.5 5 h.6.{ { s.f.&.%.{ T N - g I U Q %.Q T a.a.T m c a k #.` ' M -./ c 2 3.Q w.g.j.M.a.T.G { { %.} } /.^.W.W.N.U.U.N.{.M.",
"iXwXuXuXuX;XwXwXwXwX}.g k c Y m G H e o - * j 3 3 : - - 5 2 F P F G Y d s a s F e * 2 * 2 6 7 d 2 Z { *.&.` R.j.M.i.u.P.P.P.W. X",
"iXiXiXwXwX5XuXuXyX=XoXI Q a.s.;.=.c.v r Q.$XQ.}.Q.F.N.L o.f.N.D.D.m.R F w.W d.r.j.w.C P w.I h K W F J w.f.D.P 8 e L e = , > ^.*X",
"0X0X0XXXW.W.W.*X*XP.U.Z ) ` ` } } ;.} t.j.k.}.x.V.=.m.G ` $.>.>.>.<.*.5 h.E S S Q E a.Q Q k h I R j F f.b c c c =.) M k { { <X-X",
"<X-X/.M.L.M.L.G.q.9.J S B ) _ ) ;.;.s 3.*.h.f.m.Q.Q.j.5 ' #.#.$.' ' #.4 6.h h s c k S U k S R U I Z G D.=.` ` &.%.T T A.{ { -X-X",
"!./.L.P.i.i.q.q.q.q.q.V ~ ~ M s b b l C I 4.j Z j C H o ) #.#.` M ) ' * U h D S S U S D S E a.I c T N @.*.f.` +.a.%.Q.g.f %.<X<X",
"*X*X# # & . # = = 5 5 W w.W W C c I Q O.W j F F G F H 9.w.W W 2.F 8 F 7 J I G 3.Z C K F F G j k k c N q.W +.+.%.d.o.I k Y d.-X:X",
"XX/.w.W 7 C g ] ) E E E k Q &.Z } ;.,.c.V.=.+.a.Q H }.k.m.%.f.x.f.f.N.k.H x.$.} U ,.K j.Q.` d.Z R s.d.G.i.f.E.P.k.%.f.T U Q 2X:X",
"-X{.%.I 4 9.I ] { h E D s ` U - b _ ..-.>.c.x.) { Q f.%.T { T ` %.U T &.E c.-.-.-.,.N %.V +.k a &.E I Q G w.W 3.Z I A Z R A }.XX",
"%X*XE T g e k } h h ] D i D S 6 x &.c.c.s.} ` } s.Z V.T %.` V T N U I >.Q >.' ^ >.-.z k ` @.=.T =.E I U +.2.1.2.t 2.w t J w =X=X",
" XB.g 5 6 K 4.k C h S x i E h : s c U } D D ] b b 3 f f f c ) M c N N #.F _ ~ ~ ` z.T x U s.f.x.;.*.g s w.W K P K A J F e 5 :X;X",
"U.{.G q.q.L.w.q.R C L.p.y.y.j.P 3.4.R 6 6 j F G ; d 3 O.n 3 @ + 3 4 d ; 5 g a g g g 8 k d.P.k f N n j d O.O.=X=XuXiXiXpXuXuXuXiX",
"{.B.K /.R.>X/.*Xk.9.G.4.j.4.6.w.g.g.A 5 K W.D.A.*.A.m.x.f.@.4 +.=.A.I R R Q 6 E u R : I D S @ h.E.R.R.R.A.>XuXwXiXiXiXiXuXuXwXiX",
"{.{.g ~.P.b.!.h.6.3.4.Y P i.H.q.w.W.j.8 5.OXA.f.A.D.f.A.%.=.8 #X,._.>.x.` ) g c h D v.S.) S 3 b.A.R.E.A.>X1XiXqXyXiXyXyX;X;X=XwX",
"}.:X: d.Q h.g.a.H.3.!.N.@X/.g.R.j.f.Q Z 5.H.W./.W.N.{.{.B.W.F D.,.C.>.#.} ~ U x l l D D D c G b.g.H.h.~.~.R.2X-X-X-X-X-X*X*X:X-X",
"rX-XH y.W H.a.a.k.6 h.g.k.f.s.{ ) E c s 1.E g.k.N.Q +.Y Q g.O @.>.$.` ` U D R [ ) ) { ` ] ] j A./.s.%.R.b.b.R.L.W./.}.XXU.W.XXW.",
"yXyXG d./.a.j.P.a.4 *.U c b B c ) l x h A 3.g.R S @ p @ O o . 3 a a g N R S g ] _ b.n.} U h a T &.h.k.H.P.P.j.y.9.i.U.N.M.I.N.N.",
"wXwXwX7X5X7XqXqXiXj.j.a.K j m k g N +.+.q.G 6 E +.y.Z 4 w J q.H 8 H H j.P.f.R w.Q Y g F 4.W Q 4.a.I w.Y H q.P.j.i.i.P.P.M.M.M.M.",
"qXqXwXwX7X7XwXqXiXpX6.7.6.I j z m.D.s.c.} } ( &.&.} #.#.j.F.#Xx.Y l.} { ` ` &.} } } s.a.{ 7.{ T I E ) U q.} Z j 8 3 % # 9 q U.N.",
"qX3X3XqXeX0X-X:X0XaX6.{ ] S i Q.F.x b s.&.V.x.S.C.V.&.=.a.S.=.{ a.} } U c ) U U R Q D 8 T T Q I Q I S R J T R Q E E R n b.`.{.{.",
"-X}.XX0X0X2X=X%X=X>XD { } ] C S.R { { I { s.{ { { &.%.>.a } { W T ) ) _ } l.) ` ] D E C Q K C j j 6 A K F Q R Z j K O.W '.S.%X{.",
"*XL.Y.Y.P.R.j.j.j.G.D ` _ ) Z I 6.Q S h k U S S S E E k O T I S 6.....[ z.z.} ..'  .} C 3.F e 5 e K K d e R R g j A I d.(.z.wXwX",
"W.M.P.j.j.N.P.G.G.j.k k Q G Z H F W O.Q F G Y K 6 m Y H P R 5 7 H U f M T B V %.c %.@.+.O.Y y.4.j.g.Q j.h.g.g.{. X=X=X3XwXwXwXwX",
"*XW.% g h R Z K g C U a.] { 6.7.{ s.%.#.7.s.l.} S ;.-.' ' -.U c...' } x.l.} 6.~.P.j.j.5.y.q.Q 8...(...K.l.b.l.W..X X3X=XwXwXwXwX",
"rXrX6.l.] ...._ _ ..x E ] 7.7.` ` } ) s.c.x.>.} I ,.-.' -.-.x ~ _  ._ :.;._ { h.6.a.R Z C Z ; ..| [ 8.K.8.8.} j.N.}.=X2X:X<X2X-X",
"2X2X8.7.] [ } 8._ _ c M ) D ) ] B ` } ) { ) ` s.` >.^ ' -.,.a c ' -. ...[ ! Q 6.E T k Z C j - [ _ _ D ( x b D 3.j.R.-X}.XX}.=X=X",
"eX5X8.U ` ] [ 7.[ ~ z z ~ ~ ' } / ' ` #.} b ) ) b ` / ' ' -.3 %.@.f.' ^ _ _ h %.E S k U A C o v ( ( ( b ] ] b K y.W.!.W.XX!.=X0X",
"4X4X4X2Xc N E { U M f s M z z M z z M M U x x l S B f c I { d { %.f.` ~ _ ! s j h h k k g 3 * g c h x x S x x - > 2 * % . . =X0X",
"wXwXwXtXwXiXwXwXwXqX=X XQ k I T R 3 R R h h T E *.{ { f.Q %X'.$X0XF.V.F. Xd.3.%.a.%.T Q I I U R Q 4.6 ~.R.4.k.~.h.h.h.4.{ a.<XrX",
"yXyXyXyXyXyXyX5X5XeX<XW.{ 8.8.[ ( % ] D v.} ` } ] ) l ) E z.).<.F._._.<.F.>.d.} ` } 7.{ &.l.l.&.l.T O h.} 7.b.} z.b.l.l.'.) -XrX",
"yX5X5X5X5X5X5X5XeXeXeXOX) } _ 7.[ 3.6.7.{ E k Q h P 3.4.h l.).,.,.)._._.<.m.D.B ` ` ` s.s.s.s.b.h.] X a.7.} l.n.b.l.{ { ` E -XrX",
"*XW.W.W.XXW.W.W.>X:X-X'.7.8.8.8.8.R E R Q { h.4.y.t.i.C 3.z.).).,.).,.).%X*.T V $.$.} v.7.` s.n.K.)   Q U ) ` h.} c.l.h.] ) rXrX",
"XXW.Y.M.L.M.L.M.j.j.y.g._ .._ ..J.S F R R R R W K J L C k ....z. ._ >.x.C.T m V #.>.F.l.s.} S.E.} x * h.D ..l.v.[ h.v.{ { } rXrX",
"<XXX/.!.L.M.i.y.q.u.y.w.c l x x U h 2 5 d 4 7 2 2 - 2 o 5 E x l s l l M N Y + V @.*.o.@.V Q I U z m F { U j.%.h.g.h.a.a.{ I iXiX",
"0X2X, < < , t q 5 w K K j.s.b.s.g.h.F.w.+.T *.W.g.f.m.&.V.V.T T Q O.O.r.i.P 2.y i.t.i.W i.u.y.y.O.8 w.W W G Y D.{.-XeXwXiXiXiXiX",
"rX3Xl.} } } } ) { E (.z.l.l.$.&.z.z...b O.:X&X;.} #.;.#.' $.#.>.>.S.>XE.E.A.k.f.q.1X/.!.8X/.>XQ.f.>X>X>XXXR.H U. X7XwXuXuXwXiXiX",
"<X2X{ } } } } { { g.n.} } _ } ;.] } ..b F &XC.} } ` ` ~ l.c.c.&.a &.h.h.R.b.h.Q e.<Xb.Q.j.b.6.b.h.k.~.a.k.b.Y  X=X:X=X<X-X-X:X:X",
"rXrXl.h.v.} l.) ) S _ } !  .8.) :.} } ( 8 C.' ~ } ) _ ,.' c.' ;.I h.s.N.a.R.K E F *Xb.b.h.6.&.] { } s.6.{ { V =X=X=X=X<X-X-X-X-X",
":X2XF.} 7.s.v.l.6.3.z.8.) [ ..| z.l.[ ! 3 =._ U ` ) b -... .' -.3 %.k.g.*.f.+.Y J b.&.l.{ T { { s.l.{ ) @.o.m %X=X=X0XrX2X-X-X-X",
"-X-Xn.l.s.z.s.s.D g _ [ v ] 8.8.&.l.} U + Y S.b.K.h.x.`.$XS.&.&.o g.R.A.d.m.T 3 * a.{ 7.` U { s.&.{ { @.V M G W.!.Q.>X*XW.W.XX}.",
"rXrXZ G E G h k g 6 D E Z E U : h c Z i + 3 W w.4.I T R w.+.d.d.2 6 8 j j 8 2 2 * j.T I S E f Y f f p d d j H W.W.W.*X*XW.W.XXXX"
};
