/* XPM */
static char *_fcc199b27e54157cc8acb87b80057deoE2HyhbhLtUPQy5n[] = {
/* columns rows colors chars-per-pixel */
"64 64 230 2 ",
"   c #18180F",
".  c #272519",
"X  c #2C2A1C",
"o  c #322C1D",
"O  c #3A341E",
"+  c #2D2B26",
"@  c #313027",
"#  c #353126",
"$  c #35322B",
"%  c #3B362B",
"&  c #3D392E",
"*  c #3A3630",
"=  c #3D3B32",
"-  c #433A2B",
";  c #433D34",
":  c #4F452D",
">  c #444135",
",  c #4B4335",
"<  c #4E4B37",
"1  c #45423A",
"2  c #4B463B",
"3  c #4C493D",
"4  c #51473B",
"5  c #574B3A",
"6  c #524A3E",
"7  c #5A503E",
"8  c #625839",
"9  c #4D4B43",
"0  c #534C42",
"q  c #594E44",
"w  c #524F49",
"e  c #555145",
"r  c #5C5244",
"t  c #55524B",
"y  c #5C544B",
"u  c #5D584D",
"i  c #5D5751",
"p  c #5D5A53",
"a  c #5B5B57",
"s  c #655844",
"d  c #62564C",
"f  c #645B4C",
"g  c #6B5C4C",
"h  c #725F4F",
"j  c #645C53",
"k  c #635A54",
"l  c #6B5E54",
"z  c #735F52",
"x  c #6D614C",
"c  c #73614D",
"v  c #666056",
"b  c #6D6355",
"n  c #64635B",
"m  c #6C645B",
"M  c #6D695E",
"N  c #736454",
"B  c #7A6757",
"V  c #72655B",
"C  c #736A5D",
"Z  c #7A6B5C",
"A  c #7A715A",
"S  c #6C6661",
"D  c #666863",
"F  c #6D6A63",
"G  c #6B6E69",
"H  c #736B63",
"J  c #786B66",
"K  c #7B6E64",
"L  c #736D6A",
"P  c #6E736D",
"I  c #757066",
"U  c #7D7265",
"Y  c #73726C",
"T  c #7C746C",
"R  c #7E796D",
"E  c #6F7373",
"W  c #747672",
"Q  c #7A7671",
"!  c #747973",
"~  c #7D7B74",
"^  c #7D7D79",
"/  c #816F4E",
"(  c #836D5C",
")  c #85735C",
"_  c #826E62",
"`  c #837365",
"'  c #8A7465",
"]  c #867864",
"[  c #8D7B65",
"{  c #83756B",
"}  c #8A776A",
"|  c #857A6C",
" . c #8C7B6C",
".. c #957B69",
"X. c #937C6C",
"o. c #847772",
"O. c #847C74",
"+. c #8B7D73",
"@. c #837E79",
"#. c #8B7E7A",
"$. c #927E73",
"%. c #7C817C",
"&. c #8B816D",
"*. c #9C8360",
"=. c #94816D",
"-. c #9C836F",
";. c #868175",
":. c #8C8175",
">. c #85827C",
",. c #8B847B",
"<. c #8D897B",
"1. c #938374",
"2. c #9B8474",
"3. c #908976",
"4. c #9A8976",
"5. c #94857B",
"6. c #9A867A",
"7. c #948A7C",
"8. c #9B8A7D",
"9. c #9B907F",
"0. c #A68A77",
"q. c #AE8E74",
"w. c #A28B7C",
"e. c #A9917D",
"r. c #797E81",
"t. c #7F8586",
"y. c #848583",
"u. c #8B8681",
"i. c #8D8A84",
"p. c #858788",
"a. c #848A8A",
"s. c #8C8C8A",
"d. c #938681",
"f. c #938C83",
"g. c #9B8C83",
"h. c #9B8D87",
"j. c #938E89",
"k. c #8D908E",
"l. c #969184",
"z. c #9B9286",
"x. c #95928C",
"c. c #9B938B",
"v. c #9D9A8F",
"b. c #8C9191",
"n. c #8F9798",
"m. c #949492",
"M. c #9C9592",
"N. c #969997",
"B. c #9D9A94",
"V. c #9B9C9A",
"C. c #A28E84",
"Z. c #A38F88",
"A. c #A39284",
"S. c #A99384",
"D. c #AA9A85",
"F. c #A4948B",
"G. c #AA948A",
"H. c #A49A8D",
"J. c #AB9A8C",
"K. c #B69B86",
"L. c #B39B8C",
"P. c #A29590",
"I. c #A89790",
"U. c #A39C94",
"Y. c #AB9C93",
"T. c #A39D9A",
"R. c #AA9F99",
"E. c #B29D93",
"W. c #B19F9A",
"Q. c #9EA19C",
"!. c #B4A28D",
"~. c #A5A196",
"^. c #ADA195",
"/. c #A4A19B",
"(. c #ACA39B",
"). c #ADA99D",
"_. c #B4A395",
"`. c #BBA593",
"'. c #B2A49B",
"]. c #BBA69D",
"[. c #B3AA9D",
"{. c #BAA99A",
"}. c #A59FA0",
"|. c #9DA3A2",
" X c #A3A4A2",
".X c #ABA6A2",
"XX c #A5A8A6",
"oX c #ADAAA3",
"OX c #A7AAA9",
"+X c #ACADAA",
"@X c #B1A5A2",
"#X c #B4ABA4",
"$X c #BBACA4",
"%X c #B3ADAA",
"&X c #BBAEAD",
"*X c #AEB1AD",
"=X c #BBB2A5",
"-X c #B4B2AC",
";X c #B8B4A9",
":X c #BBB3AC",
">X c #ADB2B2",
",X c #B3B5B2",
"<X c #BBB4B2",
"1X c #B7B9B5",
"2X c #BCB9B4",
"3X c #B3B7B8",
"4X c #B5B9BA",
"5X c #BCBDBB",
"6X c #C1A68F",
"7X c #C2AA9B",
"8X c #C2ACA4",
"9X c #C5B7A6",
"0X c #C3B5AC",
"qX c #C5BBB7",
"wX c #C3BCB4",
"eX c #BEC1BF",
"rX c #C3C1BD",
"tX c #CBC5BA",
"yX c #BDC2C3",
"uX c #C3C5C4",
"iX c #CAC7C5",
"pX c #CDCCCA",
"aX c #D1CBC5",
"sX c #D1CDCA",
"dX c #CFD0CC",
"fX c #D2D1CE",
"gX c #CED1D1",
"hX c #D3D4D3",
"jX c #D6D8DA",
"kX c #D8DCE0",
/* pixels */
"s # Z ' X.7 # w K z 2 # % h B g V T O.:.+.O.b b 4 X f { 5.6.6.d.6.d.#.l G.#.H { U l b 4 ( +.J U ` H j r j I ,.,.+.< I T R n n p ",
"s.Q % t @.>.O.y.~ ~ @.i.c.T.o.; ! XX+X|.a.N.a.f {.g 0.Z.$.C.Z.g.Z.Z.L.k 5.I.P.U.'.Y.^.f H.R.O.T 1.4.3.8.1.f./.O.| 8.v.l.l.;.9.<.",
"r.|.,.T..XB.B.M.R.-X.X.XR.@Xi.t +X|.XX/.N.p.! 8._.3.$.G.C.Z.F.Z.C.W.Z.l S.z.g.E._.J.E.w.:.O.1.+.6.6.+.<.+.6.(.J 3.7.l.c.;.&.>.;.",
"m.N.,.(.l.x.x.M..XoXc.h.(.R.f.^ eX,X|.XXs.p.W 1.8.6.o.E.G.F.Z.R.W.E.X.4 1.w.S.J.L.E.D.8.7  .z.g.h.f.,.#.X.} _.y S.f.| <.&.%.&.>.",
"m.s.c.(.T.x.B.v.f.f.<.7.z.Y.#.B.;XQ.%.%.y.p.L -.-.[ r ].Y.Y.Y.Z.h.G.l ; X.2...X.w.L. .  . : 7.X.H.U.g.7.8...` # c U b C R 7.<.! ",
"|.9 U c.l.c.c.c.5.g.f.5.c.c.v /.oXx.;.x.y.M v 1.[ ) 3 :.F.Z.G.I.I.0.q F n j ' X.0.2.' 7 8 g N B V V f f b V M V x x x r < b x C ",
"t + + l U U H H M H C V b q . y l.x.~ O.I i $ C U.i.M < B C.L.W._.X.% q t 1.6.6.o.g.A.=...2.[ J.6.N &.=.-.:.U | &.[ ) ! |.+X-X4X",
">.@.@.y.s.u.v C.m y.m. XB.j.i.P > j R D > X k ~.l.;.7.i.T.D ; d f.T.oX-X~.F.@.F X ; u C U O.O.H 3 $ u U R #.F.O.> 3 k.4XyXuXeX,X",
"+XyX1X,X1X5Xx.k (.a.p.x.B.~..X/.;.c.=X:X(.n oX@.W ^ O.Q u.uXu.S <X,XoX%X%XoX-X5XF ;XwXrXaXhXsXuX+Xt W.qXqX'.I.0XM.I |.yXyXeX1X,X",
"uX>X*X*X+X2XuX;.R.b.M.c.x.B.B.u.z.I _.$.;.y F.f.@.O.~ o.^ 5.~.S B.+X+XB.v..X-X.XU.aXhXjXhXjXjXkXhXT.0X'.J.I.F.W.iXF ,XyXyXeXuX4X",
"XXx.*X>X-X).-X>.0Xp.M.x.,.s.^ ,.H.t A.1.k Q h.W @.L L ~ >.>.O.@.>.+X.X/.U.(.H.U.'.9X`.9X=X_.:XhXjXOX#X0X!.J.R.&X&XQ 4XyXyXuX5X*X",
"Q.~.Q.v.(.-X1X@.:Xj.u./.^ Q b F 1.> I A 3 5.j.L E L G Q O.x.i.C & U.~.U.H.A.| 0 :X{.{.E.g.$.2.Y.2XT.0 d.@X<X&X@Xy 0 P ^ N. X|.|.",
"~.~.Q.Q.V.5X,X| v R >.Q T U C j 3 ] 7.] r 3 O.M @.^ Q Y F j 3 . . Z  .B g 6 1 e d u v j m M v V S J k l m S H d 0 o 9 Q x.>.>.~ ",
"l.:.C % q U K Z ` w.w.A.^._.D., v.H.[.z.3.A f V d.+.U.R.8.<.v.z./ s r s r x x s l N 5 [.+Xf.I O...' _ _ _ ` ( _ b #.u.{ V { ] R ",
";.<.3.k k g.6.1.} +.1.7.8.9.4.d l.v.v.v.7.9.Z X C h.f.v.~.z.&.~.=Xe.7.p v b Z R ;.<.:.1.,.<.Q O.S 0 J 6.1.1.o.J V l J l l  .;.;.",
"H O.| b ` Z.1.$.8.2.7.1.1.8.4.b 7 3.z.l.9.3.7.b z.'.).(.;X,X~.).#X^.6.v ] -.1.=...&.3.8.-.4.2.F.g.l G.J.G.F.g.Z.+.Z V _ B | T F ",
"y y f 7 Z ` } X.4.6.+.+.+.:.z.f 1 e C %.3.D.3.R 6 m K | ;.;.b V ' 8.$.4 5 b ( ] =.` ]  .[ [ [ } O.t ` g.6.6.$.d.6._ l z d l d q ",
"Y.J.c.d.U H & & 1 = & e v b +.d.F.g.H > 6 M I I m.B.<X;XtX7XS.6.$.$.I.8X$.K 6 9 H U I { +.O.U F j t j V ' o.{ l S l i S J o.5.o.",
"I.Y.(.^.R.#X#XO.Y Q D F f.T.P.h.F.Y.Y.M U.*XQ.).^.J.A.e.e.q.e.S.Z.C.$.8.g.o.1.{ | O.Q J O.+.O.U c.(.i M d.d.#.T s.}.}.M.7.F.Z.I.",
"8.F.R.U.F.F.A.c.F.Y.J.>.(.^.P.f.4.g.A.6.J.^.4.[ } w.C.C.-.-.X.1.C.$.$. .6.S.S.0 ,.,.Q S U O.O.{ $.:.1.J g.#.o.@.V.V.M.}.3.C.Z.$.",
"g.F.U.I.F.H.A.'.8XJ.o.3 | | g.6.[ } x 7 x s 5 g l v l y q h V l k k d g c Z X.; q S :.m N K U | ` 6 < U O.+.#.#.M.V.M.f.d.Z.6.` ",
"d +.F.3. .| K K l 2 * 3 D.7X{ # g ] ] A { H B 1. .> f.%X0XqXsXaXiXaX5XOX+X X X3XyXT.Q F ! F n F F D n R J J o.o.l f l { 5.g.U.y.",
"J.U.H.f.C X o ` +.} o._ ` 1.g.V N ( 7.%.%.>.>.m B k tX9X6XK.S.K.K.`.L.L.J.c.'.@XJ.S.6.R ! P P Y P W E ! W P G G G * >.x..X~..XR.",
"E.R.{.0XY.y } C.C.6.$.C.L.$.l 7 ( B R >.>.M.<.| y d.qXK.e.q.e.K.K.4.-.0.2.X.' ..8.$.X.M P P ! P ! P ! E ! %.%.! E k ~.=X2X[.:X=X",
"g.+.F.J.} t { $.J.G.W.'.Y.' 0 - - O O 5 k u 6 - o V.`.K.q.e.q.0...) ' -...[ 2.-.0.q.0.Y G F G W E D D G G D G F G J [.~.#X.X(.#X",
"H 4.f.3.O.m % - q Z ' _ z q ; 1.8 8.N 5 Z P.o.k F j v j m d y r ; ; & ; ; t m 7 , r m y.a.~ F v 1 1 w j Y j.x.w + ; f O.,.,.;.;.",
"G.d. .8.Z.A.U } I.Y.$X8X7XL.u #X^.H.e.A ; p y.@.@.M.@.s.y.M.O.j K o.H Q n.t.i.A.# z.-X).%X:XrXiX/.= I T.4XpXtXwXR T.j.u.;.R ;.7.",
"{ { 5.$.1.X.w.$X$X8X8X8X7X{.T rX;X).H.J.u @.f.y.Q m.^ @.s.j.1.J +.M.P.W n.a.>.l.M f.7.).(.U.^.~.;Xw T.uX2X:X%XB.@.B.j.f.M.x.N.i.",
"6.O.+.:.} ) C.I.@X(.$X8X7X9X,.eX;Xl.7.4.m I C I ^ s.T x.Q O., T h.7.[ H t.k.m.H.V i.v.v.z.z.<.z.^.v ~.1X%XU.:.f.H x.x.d.x.s.j.f.",
"c ..w.4.2.c W.W._.(.'.].W.8XO.v.x.l.v.} f ; f j Q (.T.| U 6 $ U O.` _ m %.u.v.~., f.~.H.v.f.7.U._.3.v i.} C N f 0 L j.>.;.f.>.,.",
"] A / A g < V } +.$.g.g.g.U : O.T R U C 1 t 1 ; ; f.+.d , + % d d c z s T 3.z.) # # m ,.<.| } :.[ N % : N C U U +.} _ U U ;.I b ",
"[ | *.:.:.O.,.6.0.V b 8.6.+.{ H ]  .| :.7.` ;.l.8.X F O.I H m v d d j f v m < < K T v Z U w.D.0.2...N X.A.1.h.>.O.| $.5. .8 | &.",
";.v.3.9.1.| ` ] X...b ] U :.+.U | ] ] | 3.4.3.9.C.0 S H S o.l S S S o.F U J l { 1.` ' X.' 2.S.K.K.e.) B _ } $.+.{ } +.6.4. .7.l.",
"<./.Q.z.7.1.` &...g 6 C ] ` | +.[ 7.| ;.7.9.9.z.$.i J J S S L J S H l U { d q ' w.g.g.g.w.2.1.A.C.e.q.$.$.} $.{ U O.| ` | :.;.{ ",
"U 3.l.7.` v 5 g _ 9 > Z } &.{ 1.6.|  . .1.3.1.A.X., y t t l d i k L l k l d + 0.6.C.g.S.6.$.}  .w.0.0.( X.$.6.+.Z Z ,.`  .A. .] ",
"p M n R Y U 5 O.,.>.T j r j Z K U J +.( 5 v l U T J #.I.l #.d.6.g.6.5.#.o.d . 4 l b | +.$.O.{ V h z h % # 6 N ` k % s  .` Z 1 f ",
"<.<.;.l.l.v.7.| +.T.g.1.7.5.6.7.T O.~.U.f '.R.'.Y.F.Y.7.k L.Z.Z.h.Z.C.2.Z.w.h {.x a.n.t.|.+XXX! ; o.R.c.u.#.Q ~ u.>.u.>.F y ~ s.",
"%.3.<.>.z.l.7.1.J R.6.:.<.+.6.3.+.1.+.:.w._.S._.Y.g.g.S.l Z.R.C.C.Z.C.Z.G.$.,.{.8.^ p.N.|.XX|.+Xt u.#XR..X.X-XU.x.x.B.~.v.,.N.>.",
";.%.&.&.7.| f.S.y _.}  .+.<.7.c.g.g. .7 8.S._.J.J.S.C.1.6 X.Y.W.R.Z.G.Z.E.{ 2.4.3.Y p.k.OX|.,XeX^ f.R.R.f.c..X/.v.c.x.f.U.>.j.s.",
"%.<.<.R M b U c $ ` ..6.7.g.Y.H...4.: .    .L.0...-.2.X.; l L.g.G.Y.I.W.].t [ -.-.I y.p.~ >.Q.;XM.>.Y.c.7.3.f.f.x.M.f.B.U.f.s.s.",
"N x V < r x x b V m N b f g m N C N g 8 8 ` 2.w.X.' j n S q 0.I.I.Z.Z.F.+.4 ) [ =.j S y.x.>.k.oX/.v c.x.5.7.f.5.7.f.f.i.7.K e x.",
"1X*X+XXXT ) ) &.{ U 1.1.1.&.N 7.D...4.[ 1.A.g.} 5.6.$.r q % X.W.W.E.w.B < M i.H.C $ i I ;.~ x.z.y . q b m H C C U U U U I a n y.",
",XeXuXyX3Xs.< 1 @.P.#.Q U u % 3 F O.O.U V y ; X F @.H.~.-XoXT.i.d 2 S V.f.i.@.j./.n X > F R f > L i.j.B..Xm.y.S 5.j u.m.m.x.m.B.",
",X1XeXyXyX XI B.0XY._.qXqX'.y +XuXsXhXaXtXwX%XF 5X,XoX%X+XoX,X<Xm u.yXu.Q O.^ Q @..Xn (.=X:Xc.;./.oX/.U.x.s.s..XS j.2X1X1X1XeX+X",
"eXyXeXyXyX>XF iXW.G.J.D.W.0XV.hXkXjXjXhXjXhXaXU..X%X.Xv.B.+XoXQ.S (.5.^ O.~ @.@.f.H.t +.1.^.H c.u.B.B.j.c.M.x.(.i.1X1X*X>X>X4XyX",
"OXeXuXeXyX4XQ &X&X}.H.!.0X$XXXjXhX=X_.=X8X{.9X'.B.H.(.U./.).+X;.@.@.>.>.~ L L o.W h.T i =.A.r H.,.^ s.,.x.M.s.0X7.oXoX*X>X,XQ.OX",
"|.|.XXM.~ P 9 u '.&X<X@Xd.0 T.2XE.6.$.8._._.{.0X0 | A.H.~.~.v.% S i.x.O.Q H L E H j.d.9 K I 1 +.H b W ~ /.x.x.;X~ *X*X~.v.Q./.Q.",
"%.%.>.x.! 2 O e d J S l l k H V V v M m v v u u t 2 6 f A [ A . . 3 f G Q W ^ ~ F O.2 r ` 6.{ 9 j C T T Q O.T v T +X,XM.V.V.B.l.",
";XeX).oX1X.X,.F.R.8.C.Z.G.G.Z.G.G.L.W.W.Z.} | N Z b ;.7.9.7.;X-X-Xl.t e >.OX.Xm.s.i.@.K k z l #.7.f.Z.5.#.J V o.S U x.B..Xx.B.R.",
";X)./.Q.m.N.>.h.$.6.$.C.$.$.Z.C.Z.R.E.E.E.g.f f M _.wX;X[.rXeX;X-X2X/.F 1XiX<X%X.X%X.X%XH T o.5.:.+.h.f.d.} 6.h.(.#X[.#X.XR.(.c.",
").oXQ.b.n.V.k.Q w.w.6.$.$.6.} _ $.Y.(.'.W.x.0X[.rXwX;X2X;X).2X#Xv.#X-X). X2XiXqX4X4X%X0XV l #.h.h.Z.Z.g.+.J J d.h.M.c.h.U.#X(.H.",
",XXXn.Q.|.XXx.t J g.C.C.Z.o.o.+.$.$.P.1.z j.=X'.9X=X=X[.).[.[.).).<.R.&Xr.qX4X+X3XiXuX<Xw l { o.T J U o.#.#.z 5.j.R.M.g.U.F.f.l.",
"oX*X XO.M I U 9   J $.$.Z.Z.Z.C.9.8.8.N @ n v.~.z.[.3.D.(.H.v.~.).[.oXv.+ .XqX:X+XOX%X&XL @.{ +.#.+.#.#.o.{ i d.d.P.R.F.8.5.>.@.",
"-X;X,.L i.W W %.E E S J z o.C.C.7.v..XXX|.Q.Q.v.! C T U R C x C l.9.<.v l S j.(.R.c.R.H.k k l l k J o.J d w 9 { 5.g.f.| z j Q >.",
"dXfXtXx.B.b.a.%.r.@.#.$.} 0 * k.jXhXdXjXgXgXdXeX1X>X3X3XuXuX+XI k v.).:X#X$X@XZ.O.0 9 g.$XP.o.* S M.&XT.@X&X&X}.~ S j ,.x.+X,X:X",
"iXiX2Xl.i.Y ! Q ^ ^ { o.$.' ; uXtX=XeXeX>XeXeXeX1X4XyXiXhXhXdXeX{ #X:X=X$XE.$X9XqXY.f.F.Z.F.g.6.l I.qX&X$XR.R.@X%Xo.F U.l.%X-X<X",
"<XqX0X>.u.L Y T #.~ F { 6...O.gXtXe.9XeX;X;XeXeXuXiXuXtXtXtXiX5XJ 8.I.(.$X#X{.0X8X} Z.C.L.w.$.$.w.d.&X<X<XW.Y.Y.W.U.I B.c.'.oXoX",
"-X$XL.} ,.O.~ J L J I ' X.X.P.sX9Xe.eX9XeX;X~.~.-X5XrXwXaXfXhX.Xk 7.Y.F.'.Y.E.8XG.d.$.$.$.$.X.' r J R.&X%X@XP.h.h.d.i u.B.J.).(.",
"0X_._.f ,.>.T S H { U X.[ A H wXtX9XeXtXtX9X9.3.Y.).1XrXaXdXrXp q P.g.F.$X@X[.$XW.X._ _ ' +.X.g ; z C.&X@XM.d.d.g.@.t j O.J.[.#X",
"| V y m m H L S S k S e - 7 s : s A U <.&.%.%.9.V.U.&.v I M & + , o.T P.U.Z.+.} d z z } ( z o.R.}.h.T #.h.#.5.U J o.H k y v U >.",
"$Xl F @XE.d.p.b.a.k.'.8.x [.Q.l.i.Q.XXv. XT.a m./.%XT.T..X.XU.M.M.L l F.g.F.G.d.Q J $.U c.'.[.#X0X&X%X%X| w H U.#X%X+X:X(.,.H ,.",
"J.l m S.8.Q p.a.r.t.F.w.H./.Q.).v.N.XXoX Xs.J .X+X:X.XqX0X0X'.F.$X&Xl I.J.Y.Y.o.L T Z.@XwX_.J.D.F.Y.T._.$X,.&X0X:XT.x.Y.^.h.$.+.",
"P.l 4 Z.Y.>.t.y.>.>.3.8.w.~.v.Q.v.v.j./.m.l.d.%X+X2X%XqXqX8X].Y.Y.} k g.U.h.d.u.@.d.8.1.=X{.e.H.H.H.Y.w.Y.d.(.:X+XU.V.Y.F.+.} O.",
"x._ + l V U U G I H K A 7 3.z.3.<.;.<.;.O.` u.j.Y.&X2X<XqX&X=X'.6.h.i h.h.d.g.P.h.h.q l 1.C.=.9.H.^.H.1.+.j o.O./.T.j.x.<.K | I "
};
