/* XPM */
static char *_a43ba449a274845bdbd8d703ec56ab0dPwlaLHKxtEWE03o[] = {
/* columns rows colors chars-per-pixel */
"64 64 189 2 ",
"   c #5C4F46",
".  c #5D524A",
"X  c #5F5650",
"o  c #615246",
"O  c #63554C",
"+  c #66594F",
"@  c #6A594E",
"#  c #605650",
"$  c #645953",
"%  c #6B5D53",
"&  c #725E52",
"*  c #6D6157",
"=  c #6E635C",
"-  c #746256",
";  c #796556",
":  c #74655B",
">  c #796659",
",  c #77695F",
"<  c #7C6A5C",
"1  c #756B63",
"2  c #7B6D63",
"3  c #766E68",
"4  c #7D7167",
"5  c #77706B",
"6  c #7D736C",
"7  c #7C7671",
"8  c #7F7871",
"9  c #826D5E",
"0  c #826F61",
"q  c #847264",
"w  c #8A7565",
"e  c #8C7867",
"r  c #83756B",
"t  c #897769",
"y  c #86796E",
"u  c #8C7A6D",
"i  c #907D6E",
"p  c #857A72",
"a  c #8B7E73",
"s  c #867F79",
"d  c #917F72",
"f  c #8E8075",
"g  c #87817C",
"h  c #8D837B",
"j  c #948274",
"k  c #998676",
"l  c #93857A",
"z  c #998779",
"x  c #95887D",
"c  c #9B8B7D",
"v  c #A18D7E",
"b  c #8F8781",
"n  c #8E8984",
"m  c #918780",
"M  c #948B83",
"N  c #9B8E83",
"B  c #948E89",
"V  c #988F88",
"C  c #9E9085",
"Z  c #96918C",
"A  c #9D938C",
"S  c #969390",
"D  c #9C9691",
"F  c #9F9994",
"G  c #A18F81",
"H  c #A29286",
"J  c #A2968C",
"K  c #AA978A",
"L  c #A4988E",
"P  c #A99A8D",
"I  c #A09790",
"U  c #A49B93",
"Y  c #AA9E93",
"T  c #A49E99",
"R  c #A89F99",
"E  c #ACA196",
"W  c #A7A19A",
"Q  c #ACA39B",
"!  c #AFA89F",
"~  c #B1A297",
"^  c #B1A69C",
"/  c #B3A89E",
"(  c #B8AA9E",
")  c #ADA6A1",
"_  c #AEA9A2",
"`  c #B1A7A0",
"'  c #B4ABA3",
"]  c #B9AEA4",
"[  c #B5AFA9",
"{  c #B8AFA8",
"}  c #BBB1A7",
"|  c #B6B1AB",
" . c #BDB6AF",
".. c #BEB7AF",
"X. c #BDB5AD",
"o. c #BBB3AC",
"O. c #B6B4B1",
"+. c #B9B5B0",
"@. c #BAB5B0",
"#. c #BBB7B1",
"$. c #BDB7B0",
"%. c #BEB7B0",
"&. c #BCB7B1",
"*. c #BEB8B1",
"=. c #BDB9B2",
"-. c #BEB9B2",
";. c #BFB9B3",
":. c #BFBAB3",
">. c #BFB9B4",
",. c #BFBAB4",
"<. c #BFBDB7",
"1. c #BEB9B3",
"2. c #BFBDB8",
"3. c #C1B6AC",
"4. c #C3B8AF",
"5. c #C0B7B0",
"6. c #C0B9B1",
"7. c #C1B9B2",
"8. c #C1BBB3",
"9. c #C3BBB3",
"0. c #C4BCB3",
"q. c #C1BBB4",
"w. c #C3BBB4",
"e. c #C0BBB6",
"r. c #C1BCB5",
"t. c #C2BCB5",
"y. c #C3BCB4",
"u. c #C1BCB6",
"i. c #C1BDB7",
"p. c #C0BCB7",
"a. c #C3BDB6",
"s. c #C2BDB6",
"d. c #C1BEB7",
"f. c #C3BFB7",
"g. c #C4BEB7",
"h. c #C3BBB4",
"j. c #C8BEB5",
"k. c #C1BDB8",
"l. c #C2BDB8",
"z. c #C3BEB9",
"x. c #C4BFB8",
"c. c #C7BFB8",
"v. c #C3BEB9",
"b. c #C8BFB8",
"n. c #C7C0B7",
"m. c #C9C0B7",
"M. c #C4C0B9",
"N. c #C7C0B9",
"B. c #C5C0BA",
"V. c #C5C1BA",
"C. c #C4C0BB",
"Z. c #C5C2BC",
"A. c #C7C3BD",
"S. c #C6C1BC",
"D. c #C9C3BD",
"F. c #CBC3BC",
"G. c #C9C3BE",
"H. c #C9C4BD",
"J. c #CBC5BE",
"K. c #CDC7BF",
"L. c #CAC3BC",
"P. c #D0C8BF",
"I. c #C6C5C2",
"U. c #C9C5C0",
"Y. c #C9C6C1",
"T. c #CAC6C0",
"R. c #CAC7C1",
"E. c #CBC7C2",
"W. c #CAC7C3",
"Q. c #CFC7C1",
"!. c #CCC6C0",
"~. c #CAC6C1",
"^. c #CBC8C1",
"/. c #CBC9C3",
"(. c #CFC9C1",
"). c #CFCAC3",
"_. c #CFCBC5",
"`. c #CDC9C4",
"'. c #CECDC9",
"]. c #D1CBC4",
"[. c #D2CBC4",
"{. c #D1CECA",
"}. c #D7D0C7",
"|. c #D5D1CC",
" X c #D9D3CD",
".X c #D5D5D3",
"XX c #D9D6D2",
"oX c #DDDAD5",
"OX c #DEDCD8",
/* pixels */
"K.(.(.W.I.'.M.,.o.' s 8.q.s.,.| *.| F.^.[.(.F.K.m.x.x.$.*.| ' Y p | | | &.O.| C.H./.R.R.M.#.} Q [ #.| ,.M.D E ! E E ! L Q [ o.A.",
"[ _ _ _ | | *.#.k.) h W.s.s.8.g.C.m.F.*.*.&.8.C.s.q.q.q.H.s.x.` A o.#.<.[ M.^.H.Z.K.M.<.H.M.,.#.M.M.R./.M.A ^ 0.] ' ! [ Q | [ | ",
"! W W ) ) W _ ) ! Q s $...g.8.5.8.o.n.} [ } ] ) o.} ' W | ' Q Y V *.2. .! *.k.W | r.K.M.<.M.M.,.<.,.#.R.,.A ! Q _ [ ! W _ F _ T ",
"Q _ W T [ ) Q ) [ U 6 q.$.g.q...8.8.' E A ` W U Y o.[ R ' _ ] U M C.s.o. .' | *.' | |  .W W [ | | <.H._ } E L Q [ ! ) | _ W [ ' ",
"Q ] ! Q [  ._ ! ,.' r o.$.o...` o.^ ' $.o.' U J ^ ..` T H ` _ N M [ [ ! ..' #.^.M.[ [ | Q F Q [ ! Q W [ Q x A W [  .| [ ! | [ _ ",
"/ ! ' Q ! _ *.| ' I s g.) Q | o.$.' o.' ! ] ! U o...! ! o.] / x g | s.m.F.*.[ #._ ! 8.r.W W ! #.M. . ._ Q f ! _ | | _ | [ | [ o.",
"] ] _ ' W ' $.o.&.R s $.R o.' ` ..} ] ' U w...' 8.o.Q [ *.o.' l h C. .T E W J U D Q  .V Q ,.' ] o.E ) [ :.f D | | _ _ [ _ '  .' ",
"o.} ] ' ' Q U ! o.A s $.{ w.o.' ..' *.} } g.'  .4.L.o.' o.8.o.l h o.| | F.| *.W ! !  .C F ! / ..E  .[ ' ! f F ' | | _ [ ) _ ! Q ",
"` ] ] o.{ ] ^ ` ` E p &.| b.$.Y o.8.g.o.o.$.{ ' b.w.! ' 8.8.U t Z ,. .Q f f D ! o.<.M. .] W :.} ' s.8./ ] s ' R _ _ T _ Q Q W o.",
"' ^ o.o.o.{ { { L J h | x.8.` | 8...3.o.o.0.8.} x.q.' ' g.4.U l A  .| U x ] L | ' ]  .| m.:.! M.4.' ' o.' y ! o.[ | ) T W _ o.o.",
"E ^ ` H ' 3.o.{ ' U h ..q.w.9.5.F.A.q...8.m.C.8.g.m.o.5.8.o.U l A ..| ] K.A.4.n.' ' ] ! ! ! |  .U E Q L E a W $.| &.| ' Q Y ^ U ",
"c P ` ] ^ ~ 3.j.' Y m G.l.x.G.%.F.W.G.s.g.F.C.8.m.K.g.3.g.w.Q N Z | ' *./ ! M.:.] | | ! ! ]  .[ Q E o./ L 4 ^ Y B R Q U l J N E ",
"Q ] 3.^ K P N R P J M v.b.G.b.e.F.W.F.C.q.W.S.x.H.(.C.q.L.C.^ C D s...} o.^ } 4.| ,.#.' } :.n.] 4.....} ~ y L Y Y H j L Y ^ J / ",
"H Y u d Y ` R Q ^ J m v.I.G.x.k.F.W.W.H.q.m.G.x.^.W.g.8.L.s.0.N x 4.m.4.o./ Y ..E ..A.] } Q } Y 4.0.8.0.] y U Q E E Y P 3.G i w ",
"H N l c G Y ~ H ^ Y N S.o.o.o.[ &.W.W.q.q.&.| ' Q ` Y ! ' } o.M U ! Y E E H Y L E ..n.o./ / ] ] ~ E ] ..Y a / 3.( Y c / P ' P H ",
"J H L Y Y z x G Y K V $.R R U N x j j y c a a u ^ Y l l N c c f U o.Q J C c k k x f j f V E C / P E P c ' a P Y c c J k v j ( ( ",
"w < > 9 9 w 9 < 9 i a ` x u q q s j u t t 2 < < j t t f w t f j f e w q w < < 9 q q < > - > < 9 < w > e H p k w 9 9 e < 9 9 j i ",
"o o @ @ @ O @ O O % r * O     . O O $ % * + o % % - @ @ + + * 4 : @ O . O o o O + O   O $ O % $ + * + * y M p , : q 3 : : 1 3 - ",
"U R x.[.[.m.F.K._.[.'.S.,.,.$.&.k.G.S.&.T r J ! ' ' ^ E ^ o.g.K.F.| o.| 8.o.[ ' o./ 4 | F.W.b.m.C.m.n.|.XXXX X X X}. X X|. X Xw.",
"o.K.{.}.{.G.].[.x.W._.|..X{.{._.{.W.'.S.' y w.].}.[.[.P.].P.[.[.|.(.L.}.'.|..XXX X8.y | F.[.Q.K.].'.(.(.{.}.J.K.[.{.{.[.[.{.].o.",
"] 4.F.[. XP.b.s.| ,.,.e.2.x.S.S.S.S.e.[ ! s 3.g.0.3.g.g.w.g.G.w.F.C.n.8.*.C.`.[.0.4.f  .8.m.J.P.$.m.b.].(.x.].b.8.m.P.j.b.F.F.8.",
"Y 3.] 0.m.F.$. .k.,.k.2.C.I.k.2.,.x.e.O.[ s ~ o.o.0.8.4.3.4.8.8.' s.L.s.k. .*.C.K.K.M o.g.g.w.F.F.n.4.m.C.m.m.w.j.3.4.w.3.b.b.3.",
"' ( ( ] o...q.q.k.k.C.2.C.2.I.2.I.q.v.v.[ l 3.J.g.8.4.o.^ ] g...o.| 8.n.o.(.g.b.].3.f o.3.b.j.0.K.m.m.3.g.b.P.m.3.3.4.3.3.m.j.^ ",
"] ( ' 3.8.x.....&.&.2.v.S.,.,.I.S.k.v.,.' h w.o./ b.` o.3.F.] s.K.C.n.K.L.F.w.g.' ..a W w.F.b.b.m.j.8.w.m.b.m.j.3.3.F.3.4.m.m.] ",
"o.( 3.w.q.q.| ,.$.@.O.k.v.2.I.2.k.x.v.Q Q h g.G.8.] 8.3.F.4.F.m.[.[.].8.} q.g.(.J.] h ^ ] 5.o.9.j.j.4.3.j.4.j.4.3.3.4.4.3.4.j.} ",
"' 3.8.q.S.,.x.>.$.q.e.k.v.2.v.v.,.k.I.=._ h o.m.b.8.g.o.w.w.].K.s.C.8.C.*.8.w.F.3.] l { 3.j.3.3.j.j.3.4.4.j.4.4.3.3.3.( 3.3.j.3.",
"^ ] { W.C.2.e.q.e.,.$.k.,.2.I.2.,.S.I.x.Q s o.w./ 8.3.g.3.w.3.` n.*.W.(.Q.x.o.3.{ 5.N 9.b.w.3.3.4.j.j.3.j.b.4.4.3.3.] 3.} j.4.( ",
"Y } } s.k.k.S.k.v.S.q.v.I.C.v.v.v.x.G.k.! l o.5.m.b.' E 8.3.K.g.F.^.F.C.C.8.g.m.Q.J.M b.F.w.3.j.j.j.4.3.w.b.P.3.3.3.4.3.3.4.j.( ",
"Y } ] 8.G.S.G.$.e.e.x.I.b.v.e.v.C.v.s.$._ M o.b.m.m.m.m.8.g.m.].S.q.q...8.G.K.].Q.{ m x.b.b.w.5.w.w.3.3.j.3.j.3.3.( 3.( ( 4.3.( ",
"~ ] 3.o.k.S.k.| e.&.$.v.W.v.k.e.,.I.W.| Q l ` q.Q ' s.m.w.Q.P.| q.o.$.x.8.o.3.F.b.o.m b.Q.j.3.4.w.3.3.3.j.j.4.3.( 3.3.3.4.3.3.3.",
"~ ( ( 3.x.I.k.q.v.I.x.G.I.S.x.S.v.I.G.*._ A Q 3.s.s.C.*.m.w.o...o.o.$.k.8.q.m.K.9.{ s q.b.b.4.5.3.9.5.w.j.j.j.4.3.3.3.4.( 3.j.3.",
"( ' 3.w.S.I.x.x.v.v.G.I.I.G.e.v.k.C...| Q I { 8.K.F.g.] ..o.g.g.$...x.m...| C.Q.5.{ l b.Q.b.5.3.w.j.w.3.j.j.4.j.3.3.3.3.( 3.j.3.",
"[ ( ] R &.v.| o.' [ ! ^ J ' ' ) ' { ` 7.` Q 5.w.{ ` G I ' { ` ` ` ` ! T E Q Y ^ K ^ h ] ` ` ] ] J H Y ' ( ~ ] 3.' ] ] 3.( 3.0.3.",
"^ G j N A A H l N a l x N N x N I m N I Q I ] P d a G l t t a t t d j t 0 0 a i k H h Q G z w d z z u 0 j G z H G k j j k j v ~ ",
"N j 0 q r , , - > : > : > 1 2 , 0 2 & 1 a M a & 0 0 & % @ @ % % - - > : * > > - r t 6 > : > ; % & & @ @ & > ; > - & - ; > 9 w k ",
"Q.b.x.x.x.x.[ ) ) A M [ | | | [ { ` 5.b.b.Q.b.b.e.@.e.' ` R F r M ) R W ) ) R O.,.C.F.k.| | Q I Y ` ^ ' ` 1 I H H V A N J U ` q.",
"[.[.[.}.}.|..X{._._ F '.|.|.}.|.{.{.[.Q.[.G.Q.Q.[.[.[.[.Q.Q.l.h ' (.{.|.|.|.|.|..X X|.|.|.|.|.H.b.Q.[.[.q.s 4.P.m.m.m.4.F.j.].}.",
"w.3.4.4.C.I.(._.W.' A v.`.F.M.C.l.G.l.v.7.@.5.b.l.w.w.5.5.{ ' h _ k.k._.'.'.{.'.{.{.W.^.'.'./.}.Q.[.(.m.8.p ' 0.j.4.j.3.3.3.3.b.",
"4.b.4.j.x.>.v.v.[ ) M v.C.s.g.s.2.>.l.;.[ @.5.o.b.@.7.5.5.5.{ r ) s.s.x.2.C.C.q.2.M.M.2.R.^.K.H.S.[.G.3.] y Y o.3.( ] } 3.3.3.3.",
"4.g.3.4.v.v.k.S.| U b 2.k.s.C.g.l.v.e.%.{ { 5.7.@.e.5.o.5.w.{ r Y $.C.k.k.k.| s.M.k.<.C.R.^.K.H.G.x...o.` y 3.j.3.4.3.3.3.] 3.3.",
"b.0.g.8.g.M.k.&.[ J h C.,.,.*.C.q.>.I.[ | { { %.{ { l.5.' ` ` y W ] $.s.M.M.M.s.M.*.*.M.M.n.K.L.m.b.j.b.^ 4 ` 8.4.4.3.w.3.3.m.b.",
"g.m.m.n.m.F.*.|  .A M | 2.,.<.s.l.q.v.@.' 5.%.{ ' 5.3.{ 3.3.3.s Y ` 8.8.s.,.*.H.F.C.,.,.4.4.m.M.n.4.3.3.( a / m.0.o.$...w.g.g.0.",
"0.g.g.0.n.C.*.C.*.F A 2.O.O.| q.w.b.>.2.>.%.{ ` 5.` ' { ` 3.K r Y } 3.8.$.n.,.M.n.g.C...4.m.m.X.3.3.o.4.Y p ] ..} *.8.g.g.b.w.0.",
"8.0.g.m.C.C.s. .' D M  .' &.*.*.$.9.x.k.>.q.' { Q 3.{ 5.` ` ( a P 3.w.8.m.A.H.n.n.3.] ` X.( m.3./ } 3.} E h ] g.$.....5.g.8...8.",
"..o.$. .F.C.*.s.' U B ,.| @.| ,.x.5.9.j.@.O.$.^ R { 3.{ ^ Y ~ a ~ 4.4.3.X.( ] 4.} o.E E E ^ ....w.} } 3.^ h ` [ | ..] o.o.q.| o.",
"Q ' | ' s.M.*.s.q.R M x.&.=.[ @.| 5.b.3.{ >.[ { { 5.{ P ( 3.Y a ^ 4.X.( ( Q P Y ^ / ^ E / ( :.o.^ 3.o./ ` b ] ..^ ' o.o.( ' o.^ ",
"8./ ' o. .*.s.s.| A b O.@.[ &.$.5.5.o.] ] ' O.[ 5.' ] ' Y ( ] r E 4.} 3.} X.( ~ ( } } } 3.} ] ] o.} 4.4.Q l o.^ { ` J W ` ' ' g.",
"*.^ | [  .s.*.<.,.U M ,.| | [ %.$.[ ( ' ' { [ @.[ ' ' ^ ` ' ~ y E 3.} 4.n./ X.] / E ' } 3.o.} o.' } ../ Q l ^ q...' ^ L Q [ o.' ",
"8.Q._.x.*.k.,.| [ U n | O.#. .| [ [ ' ' U ( 3.] { [ [ ) ' ) ~ a / $.} / E o.]  .o.$.} / E ' o.o.4.| o.! W l ' U ` ` ] ^ ^ ! ' ,.",
"| $. .' ' [ | &.O.A n #.#.#.&.,.| [ | R Q ` ' ] 3.w.%.[ R ` Q y ! E / / [ ! ' _ o.| } ' o.*.*. . . .|  .W A ' U f l / o.$.o.w.x.",
"' A W [ | ' L A U D b Q V D h x U U T Z A U N Y H N I N a U U s _ ] ' ' ! _ ' ! U U U E L W [ J W C ! [ [ D 3.U A L J M a U U A ",
"q u u < r j l f f M V V y 4 p V M 6 s y 0 : 2 > 1 r p d m y m s W M a 6 f y 5 y y < , 4 a l s f 4 y r h U M N h a > > > 2 > r r ",
"= 6 y 6 s g s y 1 p h r : 1 : : % $ $ X X   X X # # # # $ $ 1 n n g 7 7 5 3 5 5 p 8 = 8 6 8 g p 1 3 5 = p g = : * : 1 : : 3 : % ",
"| |. X|. XoXOX.X{.[.W.W.(.C.C.k.2.O.O.O.F n O.O.I.I.I.I.I.'.'..X|..X.X.X.X{.{./.^./.S 2.(._.'.^.'.K.^.L.(.(.(.K.G.x.m.W.C.x.2.W ",
"`.{.[. XXX XOX|.{.{.[.[.{.|.|.{.`.`.`.I.T S I.'..X.X.X'.'..X'.'..X.X.X'.{.|.|.{.{.W.Z O.G.F.F.].K.m.A.n.C.F.K.m.G.K.K.[.{.[.q.| ",
"S.{.[.G.(.S.`.C.I.x.k.C.S.x.k.x.2.2.2.2.W F '.'.'.'.I.I.'.'.'.'.|./.'.{.'./.I.'.{.W.F | $.) &.s.! Q 8.o.n.8.C.3.0.F.G.Q.K.(.C.8.",
"^ 3.G.W.I.'.v.x.x.I.S.C.I.S.v.v.e.,.,.&.T ) I.2.I.'.I.I.'.`.I.'.R.W.W.'.'.H.'.I.,.I.S k.k.k.| q.<.S.'.F.F.F...} F.m.3.5.K.[.b.' ",
"Y 3.3.W.W.I.I.W.I.I.k.W.S.e.k.I.S.k.2.k.) ) '.'.I.C.I.W.2.O.2.v.W.W.W.&.| 2.|.^.`.'.Z S.W.v.W.S.g.^.,...F.g.].m.m.b.J.P.J.b.b.] ",
"Y 3.[.Q.{.W.I.I.Q.e.v.G.I.G.v.I.2.e.k.>.) ) '.I.| | &.C.C.C.=.=.2.&.2.'.{.'.H.^.I.v.B =.k.I.e.k.Q. .M.C.C.x.m.b.8.b.[.].F.F.w.] ",
"/ 3.G. XXXW.I.G.I.Q.S.W.W.W.x.I.S.S.W.,.W R 2.,.&.&.k.k.2.`.S.$.<.#.2.I._.W.C.I.'.2.n [ k.,.v.W.<.S.s.F.'.s.o.3.x.K.x.g.m.4.b.o.",
"^ ] [.[.G.W.!.b.I.b.W._.W.W.v.I.v.I.q.$.! I ..5.^.F.<.o.8.' q.g.| $.k.M. .$.F.'.S.I.n =.&.q.$.q.S.g.0.g.w.0.m.8.8.m.g.b.w.b.b.3.",
"` ] o.3.w.9.I.b.e.q.q.l.$.b.$.q.' e.{ k.' U o.8.s.*.Y W o...$.3.$.&.&. .' | o.8.{ @.s W =.{ b.3.) ` 3.o.] ] w.3.3.3.o.} } o.m.3.",
"o.P v j z N G N J N H N G J J I ' H U R Q Y ..^ C l C C N N l d l j u t t y j j v K r M A N l G c j i d c K H ~ Y G H H K K Y ( ",
"J z d j z d u t q t t a a u a a d a u y N U G t t u t > 2 > > < 2 q t t > w 4 q d z s d q w 0 > 9 w > 9 9 t w 0 w 9 e 9 w w j H "
};
