/* XPM */
static char *_3bed747d6a7482dbd16d5c9ad1e2766YWC0YKllYUBtmprl[] = {
/* columns rows colors chars-per-pixel */
"64 64 195 2 ",
"   c #050707",
".  c #0E0D09",
"X  c #0E150F",
"o  c #0F1B0B",
"O  c #171109",
"+  c #1F180B",
"@  c #0C0E11",
"#  c #0E1314",
"$  c #121413",
"%  c #181613",
"&  c #141B13",
"*  c #1C1B13",
"=  c #111718",
"-  c #151A1B",
";  c #1C1D1C",
":  c #201C0F",
">  c #241D16",
",  c #291C12",
"<  c #221F18",
"1  c #1B240B",
"2  c #1A280B",
"3  c #1F300D",
"4  c #172215",
"5  c #1C2414",
"6  c #1D2B15",
"7  c #1E221B",
"8  c #1C2B1A",
"9  c #1F3119",
"0  c #252507",
"q  c #20210D",
"w  c #2A350B",
"e  c #242414",
"r  c #232D15",
"t  c #2B2A14",
"y  c #24231D",
"u  c #2A251D",
"i  c #242C1C",
"p  c #2B2B1C",
"a  c #3A2813",
"s  c #312B1D",
"d  c #243016",
"f  c #24311C",
"g  c #2B331E",
"h  c #31311A",
"j  c #3A3A18",
"k  c #131C20",
"l  c #1D2323",
"z  c #1F2920",
"x  c #1E2528",
"c  c #242522",
"v  c #292621",
"b  c #252B24",
"n  c #2B2C24",
"m  c #262A2A",
"M  c #2B2D2B",
"N  c #332C23",
"B  c #382F20",
"V  c #322E2A",
"C  c #382E28",
"Z  c #263123",
"A  c #2C3324",
"S  c #2D3922",
"D  c #26332B",
"F  c #2D332B",
"G  c #2E392B",
"H  c #323325",
"J  c #3B3424",
"K  c #323A25",
"L  c #383824",
"P  c #33342C",
"I  c #3A352C",
"U  c #343B2C",
"Y  c #3B3C2D",
"T  c #272F32",
"R  c #2C2F32",
"E  c #2C3332",
"W  c #2E3931",
"Q  c #2F3739",
"!  c #343533",
"~  c #3A3632",
"^  c #353B33",
"/  c #3B3C34",
"(  c #313739",
")  c #353B3A",
"_  c #3B3D3A",
"`  c #422D1E",
"'  c #41372B",
"]  c #423C2D",
"[  c #423D34",
"{  c #493F34",
"}  c #423E3A",
"|  c #3C412E",
" . c #364135",
".. c #3C4135",
"X. c #37433C",
"o. c #3D423C",
"O. c #414227",
"+. c #43412E",
"@. c #434335",
"#. c #494435",
"$. c #444937",
"%. c #494935",
"&. c #43443C",
"*. c #4A453C",
"=. c #45493D",
"-. c #4C4A3D",
";. c #504837",
":. c #54443A",
">. c #524B3D",
",. c #55513F",
"<. c #5C533F",
"1. c #624E38",
"2. c #373F41",
"3. c #393F41",
"4. c #3D4442",
"5. c #3E4A43",
"6. c #3E4548",
"7. c #3B4A4A",
"8. c #434642",
"9. c #494741",
"0. c #454943",
"q. c #4B4C44",
"w. c #404749",
"e. c #454B4A",
"r. c #4B4E49",
"t. c #514741",
"y. c #524D43",
"u. c #514E49",
"i. c #4E5146",
"p. c #415049",
"a. c #4D514B",
"s. c #555144",
"d. c #5B5545",
"f. c #5E5A45",
"g. c #53534C",
"h. c #5B554A",
"j. c #55584E",
"k. c #5B594D",
"l. c #4C5452",
"z. c #545651",
"x. c #595751",
"c. c #565954",
"v. c #565A56",
"b. c #595952",
"n. c #5C5B54",
"m. c #595C56",
"M. c #555C59",
"N. c #5D5D58",
"B. c #5C5D59",
"V. c #62564B",
"C. c #625A4D",
"Z. c #625D54",
"A. c #6B5F55",
"S. c #625E59",
"D. c #5E615D",
"F. c #646156",
"G. c #6D6356",
"H. c #66625A",
"J. c #63625C",
"K. c #6B655C",
"L. c #6E695F",
"P. c #776956",
"I. c #716B5F",
"U. c #5B6262",
"Y. c #5D6A68",
"T. c #656662",
"R. c #6A6762",
"E. c #676865",
"W. c #6C6A64",
"Q. c #66676A",
"!. c #666B6A",
"~. c #6E6D6A",
"^. c #716D65",
"/. c #726E6A",
"(. c #6F706D",
"). c #797065",
"_. c #74726C",
"`. c #7A766E",
"'. c #6C7273",
"]. c #757674",
"[. c #797672",
"{. c #7C7A75",
"}. c #7D7D7A",
"|. c #82786F",
" X c #837D73",
".X c #817E78",
"XX c #82807D",
"oX c #8A857C",
"OX c #858483",
"+X c #8B8984",
"@X c #848689",
"#X c #8E8F8C",
"$X c #938E85",
"%X c #969087",
"&X c #949189",
/* pixels */
"l.) k >.y > z.w.8.E x E T ; s I [ I C $ . [ I _ [ u.>.N $ l n ; L [ y ] I U ..b Z 8 i Z A D ) ..^ n y n e A i e @./ -.y.[ ! ! 8.",
"l = ; / v ~ v . . O > y u I A I y.y.P s u r.3.*.y.q.h.S.Z.N.*.~ { >.C.k.o./ Y U U K H F A n @.-.&.y.>.:.h t i g #.~ f.4.7.u v > ",
"C C N ~ ~ :.h.9.Z.S.8.c y./ b *.N.n.} u.&.[ x.n.r.u.8.N.T.D.c.O I y.W.n...0.0.^ G G Z A A Z | &...g.a./ 1 ] #.g.k.h.g.u.~ y.V.s.",
"* } q.&.~ } 9.u._.K.l y S._ &.n.z.n.W.~.8.[ J.S.n.0.x.S.N.g.8.N &.S.R.S.N.r.=.e.F F f F G U o.i.M.z.v.o.n @.&.q.0.r.r.g.v.l.u.g.",
"y q.x.9.g.^.S.q.S.B.  ~ Z.-.g./ n.q.g.T.( 9.c.l.n.l.r.m.S.a.! I *.j.J.J.h.v.B.)  .Z Z U ^ ..4. .6.a.0.8.( ..[ q.9.3._ q.q.8.r.9.",
"c ~ K.R.u.W.9.T.S._ l [ b.g.g.u.8.} ^.n.V y.S.} e.4.9.n.z.&.~ I g.q.Z.n.} Z.N...) b U U ^  .8 y 0.x Q m } =.d.q.r.} &.8.8.8.8.8.",
"c -.^.n.a.S.S.S.r.= = m 8.9.h._ 8.S.!.r.4./ T.l._ z.o.c._ q._ r.y.q.S.S.c.M.N.&.F ..U Y W W F F 0.F ! P _ R @.g.q.u.&.&.8._ 0.M ",
"c ~ ^.A.S.z.g.z.o.> V v / x.r.F 0.a.r.! V / S.z.x.g.r.M.e.g./ _ g.J.v.k.c.r.M.! b U / ^ ^ 8.4...0.! 9.} r.( N g.g.q.&.&.&.&.r.q.",
"c [ W.S.g.r.e.x._ &.m C y.} _ ! y.J.m.o.l &.n.B.z.l.r.q.a.N.% H k.) ! q.8.m n.! b ! G ..) F  .0.4.q.u.r.r.F s Z.Z.u.u.8.&._ 8.r.",
"M I K.A.9.~ u.8.r.m @ N y.q.r.9.Z.c.( M n y.n.M.l.a.0.P T.z.N ] ~ I q.g.M / R ~ F ..P &.U ^ / 4.B.oXx.n.8.c { b.u.r.u./ } 8.4.9.",
"( 9.z.u.m M ~ r.m R M &.u.x.S.B.r.Q _ _ ~ h.g.B.J.&.c.a.z.) q.-.r.g.g.k.S._ ~ 8.^ ! ! Y ! o.e.4.8.!.&XN.8./ #.r.r.r.u.9._ S.x.8.",
"! I v.E z.M m V ) m ~ [ h.T.a.r.) ( ! E [ S.T.z.! M e.w.) ( u I ~ P x.J._ m r.) ) o.F =.X...o./ 8.o.v.v.g._ I q.r.u.g.q.x.r.8.9.",
"P ~ _ $ < ( ~ y.4.! m I &.E ~ &.o.o.M ! [ c x r w L N N N I J #.%.&.} ! = V I / n n c ..F X...0.z.J.r.E.c.n #.q.! M ! m m :.C ) ",
"v I I N [ [ } _ V C *.u n % % v / n ~ [ >.I ' t w g ] N #.>.f.-.>.[ [ I ] J t H ~ p u A r I I o./ n I > e -.;.[ 1., v u ` { m C ",
"=.~ h.[ y.h.&.I ' h.m.a.k.a.( o.&.I %.k.-...C.Z.d.h.J.k.).^.W.J.M [ @.y.{.oXn._.XXr.q.j.I U @./ ~ &.@.k.-.-.s.f.P.#.>.{ q.x.t.[ ",
"x.B.u.S.n.T._ =.{ u.v.D.!.Y.7.! v.g.-.U.^ I k.S.N.n._.^.$X.XK.v.k ~ ' n.].%XoX_.{.q.q.B.o./ o.g.J.J.q.B.D.D.b.@.<.' Z.A.S.}.#X+X",
"J.l.g.J.J.N.m.! u.B.z.U.B.U.e.e.m.D.l.W.A Y L.J.Z.A.J.j.XX^.D.o.E U s.r.b.oXz.~.S.8.z.0.! A 5.0.z.D.~.Q.U.!.(.a.y i.^.C.'.#XS.T.",
"S.8.D.K.c.J.D.E I s.M.U.v.v.7.0.T.a.j.].A t >.F.Z.K.J.^.XXJ.F.^ / Y #.n.[..X8._._.c.a.0.D U ^ i.0.!.@Xw.8.XX{.e.p Y G.h.u.y.9.y.",
"n.g.N.S.S.v...; ] -.a.z.l.z.a.e.z.=.a.7.8 -.A J.Z.|.N.R.^.g.8.^ ..P F ].}.^.n./.W.0.a.4.c U =.0.&.6.) 8.a.7.e.P t =.k.y.! ( _ M ",
"N.b.S.n.n.g./ 7 Y g.v.l.) g.e.a.e.a.a. .2 d r k.^.I.I.J.n.u.8.! E.4 I [.N.[.+X$XR.S.g.0.c  .$.D.a.! r.l.4.) _ ~ s / g.9.9.S.E.R.",
"J.g.z.q.c.q.o.r.I S.M.v.) l.&.q.`.L.D.D r r | F.[.^.).^.n.&.&.g.r.5 | =.8.}.+X{.+X+Xz._ 6  .i.L.b.a.e.e.0.r.) ..' 8.u.&.D.(.Q.}.",
"N.c.q.b.N.c.M ~ #.N.l.z.e.c s.`.(.(.D.9 r 6 s.s.s.J.G.G.m.B.n.J.^ Z U =.e.g.N.~.}.w.E b | | ..D.4.a.r.v.e.4.X.Y #.@.&.&.'.[.~.OX",
"N.g.a.g.n.N.! g.I a.a.l.c ~ J.R.[.K.5. .w S i.=.g.y.g.x.N.g.w.r.^ g A =.q.q.g.n.r.! A ^ | |  .l.r.4.!..._ ^ o...%.&.V 9.l.@Xl.{.",
"c.c.a.g.b.J.E g.H 0.w.E ! _ a._.j.U.l.5.f g j.-.g.o.[ c._ M ~ b.U f f | &.r.b.m.N.! n U | | o.i.l.l.M.g.a.E W U g F ~ } Z.XX~./.",
"N.k._ q.n.v.8.r.I / _ ~ a.o.0.j.D.D.l.X.d g ..=.i.o...g.E ! I z.! f g Z K &.v.0.8._ b -.g | =.5.0.a.6.0.) ) Z U | L / *.u.J.v.S.",
"c.g.r.B.w.M / F 4.I _ e.X.q.8...8 Z 8 4 r r | f f A ....I V ~ ! i K U S H h @.@.&.! I | ..%.S 9 ^ D ) c 4 6 f Y -.%.H n ! =.*.8.",
"n ~ / ) : N ] Y y [ #.] h L 5 s 5 1 4 g r f 6 d e 5 9.q.n N [ / @.$.S K K +.t Y p e @.@.| S d g $...e K @.| K Y @.N @.I J u > ; ",
"{ h.y.[ q.@.*.F.M I I { >.s.&.A N -.[ U  .$.| f f r q.r.g.q./ *.>.@.A F g q.-.Z.=.P j.k.i.| f | | g.@.U i.K U U | s g.[ -.q.n g.",
"[ [ K.L.W.J.L.B._ y ~ h.&.s.-.&.d.s.s.-.@.@.U 6 r P N.q.q.g.W.Z.i.k.o.G S =.i.J.&.q.B.j.a.| 9 9 K ..| ..-...q.m.L @./ #.&.M._ &.",
">.G. XoX X^.W.D.r.n.8.&.@.).n.-.&...q.-...[ ~ 8 K s.g.h.q.r.K.N.J.i. .f f i.i.i.0.&.a.i.i.X.|  .S | g.d.s...i.m.n Y / p z.M.z.[ ",
"/ n.[.$X XoXZ.J.M.o.b n I K.b.&./ s.G.d.P &...U / =.q.B.b.k.G.R.L. .A 8 A  .U ^ / m M F U ^ U G g ....-.s.q.q.g.g.q.J p e.8._ a.",
"y._./.B.G.x.9.o.E _ ! s.A.h.d.h.C.Z.A.h./ H P 4 g / _ 0.-.g.S.J.C... .K K K i.D.g.q.m.i.D.(.i.Z K ....i.>.y.&.q.m.g.~ y l._ _ e.",
"h.W.c.z._ 8.4.q.E c > %.f.q.U @.A.A.V.t.} *.I N I q.} =.@.g.=.S.G.>.U G S  .D.i.J.J.N.a.g.M.0.f | ..=.@...&.I u.h.r.~ p B.a.D.z.",
"y.J.c.r.8.e.N.r.) P P Y y.#.&.W.R.L.y.t.8.q.V y [ g.P &.q.q.T.g.N.| ^ i f K ....!.F./ 8.q.^ / g U ..@.=.@...I >.-./ e e m.b.8.x ",
"b.Z.N.8.4.g.4.E ! a.U Y >.#.[ ^./.L.t.*.t.{ V &.-.i.n =.i./ q.J.F.=.A r f  .q.e.i.g...&.=./ ! g K $...@.&.q.F &.#.@.e e b.E / - ",
"S.S._ M I 0.m y _ U U #...y.~ *.u.) *.*.t.9.9.~ n &.^ 0.&./ P K.`.a.b A F ..&.e.b.q.z.e.g.=.F i Z f Z ..&.-.P =.&.&.b q ^ 8.C ! ",
"Z.b.~.&.r.q.l / A @.@.[ %.&.[ m % v C % { } 9.; h.[ g.q.! ....W 0._.g.F g ..= _ ~ ~.J.q.{.!.f ..| K A A U / ..! P b n e 8.J.~ r.",
"-.q.W.0.z.Z P U =.a.=.@...s.q.~ } u.t.> #.> b v d.Y i.o.F ! ^ ! i.oXW.i g i P ..r.v...&.z.A K g K S Y -.b M y X # y s j #.a.r.4.",
"j O.= P a. ...&.=...U @.Y Z e c H / V n n y.-.| Y U ^ G i  .A F ..i.Z U g g U P A A i f 8 A Y g Z S A e A n ~ ~ n ;.` a : * P [ ",
"0 n H J h...H +.O.#.%.-.| U I i H H / H H A #.Y | H i r i r Z K A K A H S F U i ..p / | H A U K U @.| I -.>.s.V.>.s { , t ' s.f.",
"y.y.k u ~ / -.@.i.$.=.$.$.o./ ..H I a.) K =.0.o.G ^ U o.K H F G ^ $.^ U ..G U G f U =...g.&.U 0.q.&.P H >.s.s.d.-.s.C./ n M ( u.",
"g.! - y ] ' $.i.m.a.q.e.=.o... .K U ^ ^ o.o. .i.=.o.G X.F I ~ ..U =.o. . . . .F Y q.i.0._./.i.W.~.D.F *.h.%.>.f.>.d.d.g._ 8.! / ",
"&._ = C J >.a.D.g.d.g._ o.8.0.o.r Y 0.^  .o. .D.J.v.F ! b I =.q.a.g.0.0.a.a...c -.r.q.s.Z.b.j.j.E.J._ @.V.s.G.s.F.^.Z._ v.V I ~ ",
"~ ^ M ~ n ^ s.k.D.g.a.8.0.y.q.r.b A W.s.o.0.0.i.J.q. .e.b.@.q.-.g...K.m._ _ _ F ] g.r.v.H.J.S.4._.J._ I >.).W.b.`.I.g.0.q./ &.! ",
"c ; m v ] P u.J.M.g.m._ ) a.^ ! H G g.g.D.U G o...e.o.! n / s.g.e.J.q.! z.r.T.^ I g.J.S.q.q.q.8.e.z._ [ y./ e.D.W.C.g.8.3._ 8.V ",
"[ y./ C H ] y.F.k.b.y.! X...o.o.& U o.o. . .F c.i.e.m 0.y d.F.c.q.b.R m.r./ z.! ~ m.c.~ &.n.Z.g.D.q.P P @.M o.D.J.a.*.g._ 9.=.! ",
"y.y.g.U I =.Z.F.r.u.9.} M 0...) i @.z.a./ X.W._.c.8.r.F [ s.&.g.B.r.e./.u.r.8.!  .F b r.u.! 8.b.u./ n % / ..r.v.g.r.8.u.8.r.! I ",
"&.8.-.^ p U &.g.q._ &.V F P W U i o.o. .) &.a.a.N.r.E I s.g.g.c.z.&.W..X{.Z.v.n Y P &.g.m V / g.} P @ M I / L.n.&._ 9.! / m.~ ! ",
"/ o.&.D t L ..g.=./ ^ b b o. .F p 8.m.4.0.g.M.g.u._ ! q.C.d.c.g._ ) x.S.~.z.=.e U / _ r.m M 8.9.} m - P &.q.&.~ M l ; r.8.r.8.m ",
"&./ ^ 7 1 I _ q...x F G F F A b @.j.c.a.6.e.r.8.r.E 8.:.s.d.D.q._ 8._ =.r.B.c A Y 8.&._ ; ! P } c . m N 9.8._ P / m m ~ ~ 9./ % ",
"c.q.P i ] ;._ U & 7 2 6 6 8 f f Y &.8.8._ ( _ / &.- / -.Y @.8...! ( 4._ P g.F U ;.g.a.) n / / / $ ; ! n ~ M = > ! P M M < ; b M ",
"&.P o 2 K L  .| A | K Z K K U U | M y P . P ! H v P @.-.P [ M F A y c 8.n.o.F Y Y P M n m ~ l m # H J ' B % v v P k c ! ! v % / ",
"p : g w U P @.K | $.S g g | K $.%.y.*.#.y.f.&.y.q.*.>.s.@.F./ H P A P H H P I @.U H I -.-.Y q.n ~ #.s p . I ' I #./ *.*.~ V [ < ",
"g.X.../ F U H H | | S | | K  .o.( w.) I d.J.S.v.F.B.q.q.q.n.&.e / P y.@.q... .@. .Y ..>./ / d.h.-.q.k.W.I *.] #.0.&.[ &.~ _ } / ",
"r.q.z.l.) U H g | S | $.^ ) o.E.r.T.3.n u.Z.M.z.B.M.c.r...q...b ..8.o.8.4.! e.....F A i..._ 9.y.-.h.L.N.&.u./ @.r.&.q.8._ _ 8.z.",
"g.a.e...o.o.! H | g o.5. .) z.D.B._ _ *.u.v.v.U.z.M.o.) 4.0.e.@.o.4.4.8.o.) 0.o. .G S =.U ^ &.9.u.Z.F.G./ z.~ >.r.o./ ) 8.} 8.u.",
"q.a.0.o.o. .E g K K r.3.Q ) 2.) ( 3.R I C.q.M.z.r.w.6.e.e.r.o.>.g.e.4.X.! c.g.o.U Z F U ..b.d.y.Z.G.Z.*.~ P % *.q.8._ / ! ) 9.9.",
"m -.a.e.o. .8 A U U 7.) M m ) 2.( ) R I d.B.e.6.l.M.l.e.l.l.E I j.v.e.4.o.) 8.o.^ G Z A | o.-.s.Z.Z.d.R / ~ n ] m v v m ~ } ) } ",
"n H ! e.=.W 8 A Y g.M.4.) ! ) ) ) ) m ] k.B.l.e.U.l.l.7.M.w.~ #.S.g.q.0.E e.8.0...b g ^ &.$.0.y.n.s./ - c M v ~ V P V ! } } } } ",
"8.*...P o.o.b L H s.g.E w.B.( R - R m N S.v.M.M.M.7.w.6.Q.6._ h.B.e.e.( ( T.0.e. .i f U o.s.q.q.G.Z.9.! ~ / [ *.8./ _ ! / u.x.J.",
"z.r.4.P U ) Z A ~ r.4.k } ~ ) x c [ y -.z.r.M.M.l.l.M.l.c.m ~ %.v.4.4.M S.g.( / U 8 b f b P x.Z.Z.*.V 4.8.~ ] @.h._ / _ 8.r.v.u.",
"e.4.8.) ....W i 8.2.2.k P } 3.c v C { &.&.r.N.l.w.w.l.4.4.! -.V.c._ ) ( 8.4._ ( 7 f F U ..&.t.~ d.&.*.~ _ _ I { M 9.} 9.} } 8.M ",
"8.) ) 8.U 4.! 7 ) 3.Q x r.U.e.3.[ >.#.-.*.y.q.r.u.e.8.z.e.~ &.*.0.m c ! ! 8.) c i n H U U P m V P q.; c ! u.[ I M b ! } } 8.} V ",
"8.m ! 8._ =.E n ~ m c > ~ n.w.Q.I Y ~ s.#.@.u.u.=.8.r.e.) ~ >.-.-.[ &.*.k.c.m # P A H P b ^ c 9.9.% c / ! ~ S.M v ~ _ / 9.9.9.v."
};
